# xmcd
#
# Track frame offsets: 
#        180
#        6783
#        26503
#        51324
#        85674
#        103354
#        126339
#        147881
#        181599
#        202575
#        222771
#        240331
#        250670
#
# Disc length: 3620 seconds
#
# Revision: 0
# Processed by: cddbd v1.5.2PL0 Copyright (c) Steve Scherf et al.
# Submitted via: ExactAudioCopy v0.95b3
#
DISCID=a20e220d
DTITLE=Alambic Mike Band - Too Tired To Cry
DYEAR=1995
DGENRE=Blues
TTITLE0=Put The Still On
TTITLE1=Blackbird Blues
TTITLE2=Two Steps Forward
TTITLE3=Cross My Heart
TTITLE4=Who Is The Blues
TTITLE5=Pompon Rouge Blues
TTITLE6=Spell Of The Moon
TTITLE7=Too Tired To Cry
TTITLE8=Mickey Boogie
TTITLE9=Aw'h Babe
TTITLE10=Begging Like This
TTITLE11=Sunny Morning
TTITLE12=T. Bone At Five
EXTD=
EXTT0=
EXTT1=
EXTT2=
EXTT3=
EXTT4=
EXTT5=
EXTT6=
EXTT7=
EXTT8=
EXTT9=
EXTT10=
EXTT11=
EXTT12=
PLAYORDER=
